<svg xmlns="http://www.w3.org/2000/svg" viewBox="526 -353 68.918 81.042">
  <defs>
    <style>
      .cls-1 {
        fill: #9fd4d2;
      }

      .cls-2 {
        fill: #5ba58c;
      }
    </style>
  </defs>
  <g id="Group_10" data-name="Group 10" transform="translate(525.886 -352.958)">
    <path id="Path_36" data-name="Path 36" class="cls-1" d="M39.3,5.8a30.053,30.053,0,0,1,3.2,1.1c1.3.6,2.3.9,3.5-.4A19.91,19.91,0,0,1,49.9,4c.3-.1.9.2,1.3.4,3.3,2,3.9,4.4,1.6,6.8-2.8,2.8-1.5,5.1-.4,7.5a9.689,9.689,0,0,1,.5,7.6c-1,3-3.1,5.5-4.8,8.3a1.275,1.275,0,0,1-.7.5c-2,1.4-1.9,3.1,0,4.6,1.4-.8,2.8-1.6,4.2-2.3a1.569,1.569,0,0,1,1.5.3c1.1,1.8.5,3.6-.2,5.2-.4.9-1.8,1.4-2.7,2.1-.2.2-.6,0-1.2-.1.4-.7-1.2-2.3-1-.1a26.416,26.416,0,0,0,.2,2.9c.2,1.3.6,2.7.9,4,.6,2.7,1.1,5.4,1.6,8.2.3,1.6.2,3.2.4,4.7a6.551,6.551,0,0,0,.8,1.3,18.96,18.96,0,0,0,4-7.7c.7-3.1,2.3-6,3.6-8.9a19.831,19.831,0,0,0,1.1-2c.6-1.6,2-2.9,3.2-2.7,1.4.2,2.6,1.7,3.8,2.7a2.321,2.321,0,0,1,.4,1c.4,2.2,1.2,4.5,1,6.6-.5,4.1-.6,8.4-2.8,12.1a42.5,42.5,0,0,0-2.1,4.3c-1,2.4-3.4,3-5.4,4-.9.4-1.6,1-2.5,1.3-1.2.5-2.5.8-3.7,1.3a2.84,2.84,0,0,0-1.5,1c-.7,1.6-2.1,1.8-3.4,1.9-3.6.1-7.2,0-10.8,0-5.9,0-11.8.1-17.8.2a13.318,13.318,0,0,1-3.4-.5,3.019,3.019,0,0,1-2.5-3.1c-.2-4.3-.3-8.7-.6-13s-.6-8.6-1.1-12.9c-.3-2.3-1.3-4.3-4-4.9-1.4-.3-2.6-1.4-3.8-2.3a1.5,1.5,0,0,1,.3-2.7,4.453,4.453,0,0,1,4.2-.3c1.8.8,2.2.4,2.4-1.6.3-2.6.6-5.1,1.1-7.7.4-2.2-.9-3-2.5-3.8-1.9-1-3.7-2.1-5.5-3.2a9.456,9.456,0,0,1-2-1.1C-.3,22.3-.2,21,.9,18.1c1.1-2.7,2.2-5.4,4.3-7.6.5-.6.8-1.7-.7-2.3A10.05,10.05,0,0,1,2.1,6.4a2.075,2.075,0,0,1-.6-1C1.3,3.3,2.4,1.7,3.9.3c.8-.8,3.2-.1,4,1.1a4.027,4.027,0,0,0,4.5,2.1,45.541,45.541,0,0,1,7.4-1.1c3.6.1,7.1.8,10.6,1.2,1,.1,2.1.2,3.1.3a14.62,14.62,0,0,1,2,.5C35.3,4.8,39.2,6,39.3,5.8Z"/>
    <g id="Moq6bt_1_">
      <g id="Group_8" data-name="Group 8">
        <path id="Path_37" data-name="Path 37" class="cls-2" d="M35.1,5.4c-2.1-.4-4.2-1-6.4-1.2-2.8-.2-5.6-1-8.5-.2a13.641,13.641,0,0,1-4.4.8c-2.6-.2-4.4,1.5-6.3,2.7-.3.4-.2,1.5-.4,2.4a5.633,5.633,0,0,0-1.3,0,4.472,4.472,0,0,0-2.2,1.3,38.073,38.073,0,0,0-3.1,5.6C.8,20.6.7,22.6,4.8,24.4c1.7.7,3.1,2,4.7,2.8,4.5,2.5,8.8,5.6,14.2,6.1,2.2.2,4.4,1.1,6.6,1.6a14.619,14.619,0,0,0,2,.5c2.4.4,4.9.9,7.3,1.2a3.776,3.776,0,0,0,3.8-1.9,1.389,1.389,0,0,1,1-.5c2.8.5,3.7-1.8,4.8-3.5a17.6,17.6,0,0,0,2.5-5.8,10.125,10.125,0,0,0-1.5-8.4c-.9-1.4-1.5-2.7-3.3-3.1a1.646,1.646,0,0,1-.9-1.2c-.3-3.2-2.8-4-5.2-5-.6-.3-1.2-.6-1.9-.9.1-.2.1-.3.2-.5a30.053,30.053,0,0,1,3.2,1.1c1.3.6,2.3.9,3.5-.4A19.91,19.91,0,0,1,49.7,4c.3-.1.9.2,1.3.4,3.3,2,3.9,4.4,1.6,6.8-2.8,2.8-1.5,5.1-.4,7.5a9.689,9.689,0,0,1,.5,7.6c-1,3-3.1,5.5-4.8,8.3a1.275,1.275,0,0,1-.7.5c-2,1.4-1.9,3.1,0,4.6,1.4-.8,2.8-1.6,4.2-2.3a1.569,1.569,0,0,1,1.5.3c1.1,1.8.5,3.6-.2,5.2-.4.9-1.8,1.4-2.7,2.1,0,.2-.4,0-1-.1.4-.7.6-1.6,1-1.6,1.7-.3,1.8-1.6,2.1-2.8.1-.4,0-1-.2-1.1a1.3,1.3,0,0,0-1.2.1A5.6,5.6,0,0,0,48,44.8a26.416,26.416,0,0,0,.2,2.9c.2,1.3.6,2.7.9,4,.6,2.7,1.1,5.4,1.6,8.2.3,1.6.2,3.2.4,4.7a6.551,6.551,0,0,0,.8,1.3,18.96,18.96,0,0,0,4-7.7c.7-3.1,2.3-6,3.6-8.9a19.831,19.831,0,0,0,1.1-2c.6-1.6,2-2.9,3.2-2.7,1.4.2,2.6,1.7,3.8,2.7a2.321,2.321,0,0,1,.4,1c.4,2.2,1.2,4.5,1,6.6-.5,4.1-.6,8.4-2.8,12.1a42.5,42.5,0,0,0-2.1,4.3c-1,2.4-3.4,3-5.4,4-.9.4-1.6,1-2.5,1.3-1.2.5-2.5.8-3.7,1.3a2.84,2.84,0,0,0-1.5,1c-.7,1.6-2.1,1.8-3.4,1.9-3.6.1-7.2,0-10.8,0-5.9,0-11.8.1-17.8.2a13.318,13.318,0,0,1-3.4-.5,3.019,3.019,0,0,1-2.5-3.1c-.2-4.3-.3-8.7-.6-13s-.6-8.6-1.1-12.9c-.3-2.3-1.3-4.3-4-4.9-1.4-.3-2.6-1.4-3.8-2.3a1.5,1.5,0,0,1,.3-2.7,4.453,4.453,0,0,1,4.2-.3c1.8.8,2.2.4,2.4-1.6.3-2.6.6-5.1,1.1-7.7.4-2.2-.9-3-2.5-3.8-1.9-1-3.7-2.1-5.5-3.2a9.456,9.456,0,0,1-2-1.1C-.3,22.3-.2,21,.9,18.1c1.1-2.7,2.2-5.4,4.3-7.6.5-.6.8-1.7-.7-2.3A10.05,10.05,0,0,1,2.1,6.4a2.075,2.075,0,0,1-.6-1C1.3,3.3,2.4,1.7,3.9.3c.8-.8,3.2-.1,4,1.1a4.027,4.027,0,0,0,4.5,2.1,45.541,45.541,0,0,1,7.4-1.1c3.6.1,7.1.8,10.6,1.2,1,.1,2.1.2,3.1.3a14.62,14.62,0,0,1,2,.5A6.9,6.9,0,0,0,35.1,5.4Zm8.3,31.8a15.641,15.641,0,0,1-3.5.4c-1.5-.1-3.1-.5-4.6-.7-3.3-.6-6.5-1.2-9.8-1.8A45.223,45.223,0,0,1,20.2,34c-1.8-.5-3.6-1.3-5.4-1.9-1.1-.4-1.7,0-1.9,1.2a82.215,82.215,0,0,0-.2,19.2c.4,4.6.8,9.2,1.1,13.8.2,2.7.3,5.5.5,8.2.3,3.3,1.3,4.5,3.8,4.9,2.8.4,2.9.2,3.5-2.5.2-1.1,1.2-2.7,2-2.8,1.1-.2,2.5.6,3.5,1.3a20.468,20.468,0,0,1,3,3.5,2.043,2.043,0,0,0,1.3.8c3.2.5,3.9-.2,4.3-3.4a5.262,5.262,0,0,1,.4-1.8c.5-.9,1-2,1.8-2.4a2.8,2.8,0,0,1,3.5,1.2,19.755,19.755,0,0,1,2,3.8A2.7,2.7,0,0,0,46.2,79c1.2-.1,2.9-.3,3-2.2a19.67,19.67,0,0,0,.3-2.4c-.1-3.2-.4-6.4-.5-9.7A45.969,45.969,0,0,0,47.1,52a58.533,58.533,0,0,1-1.6-10.2A5.619,5.619,0,0,0,43.4,37.2ZM57,61c-.3.8-.4,1.1-.5,1.3-1.4,2.8-1.2,4.1,1.1,6.2a18.723,18.723,0,0,0,2.9,2c1.3.9,2.2.6,3.3-1.3a2.066,2.066,0,0,0-.6-3c-1.3-1-2.5-2.3-3.8-3.4A29.852,29.852,0,0,0,57,61Zm3.4-9c-.8,1.6-1.5,2.8-2,4a1.374,1.374,0,0,0,.4,1.2c1.3,1.2,2.6,2.2,3.9,3.4,1.1.9,2.8,1.7,3.5.5a4.868,4.868,0,0,0-.1-4.4C64.7,55,62.6,53.8,60.4,52ZM52.2,8.5c0-1.8-.8-2.7-2.2-2.7-1.6,0-3.7,1.7-3.7,2.9s2.2,3.6,3.3,3.6C50.9,12.4,52.2,10.5,52.2,8.5Zm-.3,63.1a6.621,6.621,0,0,0,0,2c.3.7,1.1,1.7,1.5,1.6A6.565,6.565,0,0,0,57,73.9c.8-.8-.2-1.7-1-2.3-.2-.1-.1-.5-.3-.7-.8-.9-1-2.8-2.6-2.5C51.2,68.8,52,70.6,51.9,71.6ZM6.7,7.4C8,7.5,9.1,7,9.2,5.6c.1-1.2-2.6-3.7-4-3.8C4.1,1.8,3,3.2,3,4.5,3.1,5.9,5.1,7.4,6.7,7.4ZM37.4,76.6c-.1.1-.3.2-.4.3.6.8,1,2,1.8,2.2.9.3,2-.3,3-.4a24.748,24.748,0,0,0-.6-2.9,2.379,2.379,0,0,0-.9-1.3c-.4-.4-1.3-1-1.5-.9a6.69,6.69,0,0,0-1.4,1.9A4.052,4.052,0,0,0,37.4,76.6ZM25.5,79.7c.6-.4,1.6-.8,1.8-1.4.3-1-1.5-2.6-2.6-2.6-1.7,0-1.2,1.4-1.3,2.3C23.1,79.5,24.2,79.5,25.5,79.7ZM10.4,44.9c-.8-2-2.3-2.3-3.8-2.5-.4,0-1.1.3-1.1.6A1.584,1.584,0,0,0,6,44.2,4.294,4.294,0,0,0,10.4,44.9Z"/>
        <path id="Path_38" data-name="Path 38" class="cls-2" d="M17.4,10.8c4.4-.5,7.1,2.1,9.4,5.3a1.592,1.592,0,0,1,.3,1.3c-.6,2.6-1.7,5-3.9,6.3a6.029,6.029,0,0,1-4.2.2A13.849,13.849,0,0,1,10.7,17c-.1-.2-.1-.3-.2-.5a5.045,5.045,0,0,1,4.6-5.7Zm.3,8.5h0c.9,1.7,2.1.6,3.2.3a1.83,1.83,0,0,0,1.5-2.1,5.071,5.071,0,0,0-4.1-5.2c-1.6-.4-4.3,1.4-4.3,2.8C14.1,16.2,16.4,18.9,17.7,19.3Z"/>
        <path id="Path_39" data-name="Path 39" class="cls-2" d="M43.9,19.6c0,2.5-.2,4.3-2,5.4-.6.3-1.4.8-2,.6-2.7-.8-5.5-1.4-7.9-2.7-1-.5-1.6-2.8-1.4-4.2.7-4.8.9-5,5.9-6.1a5.409,5.409,0,0,1,3,.6C42.3,14.6,44.2,16.7,43.9,19.6Zm-5.7,2.3c.2,0,.5-.1.9-.1,1.2,0,2.4-.1,2.6-1.4s.3-2.7-1.1-3.7c-1.6-1.2-3.3-.8-5-.8-.2,0-.5.3-.6.5C33.4,19.4,34.9,22,38.2,21.9Z"/>
        <path id="Path_40" data-name="Path 40" class="cls-2" d="M18.5,14.7c0-1,.1-1.9,1.3-1.9a2.37,2.37,0,0,1,1.4.8c.2.5.3,2.3-1.3,2.5C19.5,16.3,18.5,15.2,18.5,14.7Z"/>
        <path id="Path_41" data-name="Path 41" class="cls-2" d="M39.7,18c-.5-.2-1.8-1.2-1.5-1.8a1.508,1.508,0,0,1,1.4-.9c.6,0,1.7,1.5,1.5,2A1.16,1.16,0,0,1,39.7,18Z"/>
      </g>
    </g>
    <g id="g5cB7t_1_">
      <g id="Group_9" data-name="Group 9">
        <path id="Path_42" data-name="Path 42" class="cls-2" d="M24.9,45.1a4.363,4.363,0,0,1-1,.8,21.85,21.85,0,0,1-2.3.9c-1,.5-1.1,1.2-.2,1.9.8.5,1.6.9,2.4,1.4a3.45,3.45,0,0,1,.9.8c.1.2-.2.7-.4.8a1.515,1.515,0,0,1-1.3.1l-5.4-3.6c-.9-.6-.9-1.5.1-2,2-.9,3.9-1.8,6-2.7C24.5,43.2,25.1,43.8,24.9,45.1Z"/>
        <path id="Path_43" data-name="Path 43" class="cls-2" d="M25.7,54.7c.2-.4.3-.7.4-.9,2.3-3.9,4.5-7.7,6.8-11.6.3-.5.6-1,1.3-.5a1.8,1.8,0,0,1,.3,2.2c-1.1,1.5-2.2,3-3.2,4.6-1.2,2-2.2,4-3.3,6-.1.2-.2.5-.4.6a2.389,2.389,0,0,1-1.4.5C26,55.7,25.9,55,25.7,54.7Z"/>
        <path id="Path_44" data-name="Path 44" class="cls-2" d="M33.3,53.4a6.014,6.014,0,0,1,1.3-.9c.7-.4,1.5-.7,2.2-1.1.6-.4.7-.8.1-1.3-.5-.3-.9-.7-1.4-1a1,1,0,0,1-.3-1.6.9.9,0,0,1,1.5-.3A40.807,40.807,0,0,1,40,49.7c.7.7.1,2.6-1,3-1.4.6-2.7,1.2-4.1,1.8a1.417,1.417,0,0,1-1.1-.1C33.5,54.3,33.4,53.9,33.3,53.4Z"/>
      </g>
    </g>
  </g>
</svg>
