<svg xmlns="http://www.w3.org/2000/svg" viewBox="705 -463.181 193.396 186.49">
  <defs>
    <style>
      .cls-1 {
        fill: #fff;
        stroke: #fff;
        stroke-linecap: round;
        stroke-linejoin: round;
        stroke-miterlimit: 10;
        stroke-width: 2.758px;
      }

      .cls-2 {
        fill: #35b087;
      }

      .cls-3 {
        fill: #eff7f4;
      }

      .cls-4 {
        fill: #9fd4d2;
      }

      .cls-5 {
        fill: #fdc72f;
      }
    </style>
  </defs>
  <g id="Group_7" data-name="Group 7" transform="translate(704.605 -463.091)">
    <g id="Group_5" data-name="Group 5">
      <g id="ZElpxO_2_">
        <g id="Group_2" data-name="Group 2">
          <g id="Group_1" data-name="Group 1">
            <path id="Path_1" data-name="Path 1" class="cls-1" d="M157.7,125.4h0Z"/>
            <path id="Path_2" data-name="Path 2" class="cls-1" d="M160.2,128.6h0c2.6,3.2,5.7,6.1,8.5,9.2,1.1,1.1,2.3,2.2,3.5,3.2.4.3.8.7,1.2.5q.45-.3,0-.9c-.4-.6-.1-.8.3-.9-.8-1-.8-2.2-2-3.2h0c0-.1-.1-.1-.1-.2a20.017,20.017,0,0,0-2.7-3.1h0a.1.1,0,0,0-.1-.1,29.455,29.455,0,0,0-5.8-6.5c-1.6-1.4-2.9-1.4-3.1.2-.7-.5-1.5-.9-2.2-1.4C157.9,126.8,159.4,127.5,160.2,128.6Z"/>
          </g>
          <path id="Path_3" data-name="Path 3" class="cls-1" d="M126.3,7.5a42.86,42.86,0,0,0-4,8.4c-.5,1.5-1.5,3.5-.3,3.7s2.2-1.9,3.3-3.2a32.051,32.051,0,0,0,4.5-10.3c.2-.9.3-1.8-.4-1.8s-1.3.8-1.9,1.5A10.381,10.381,0,0,0,126.3,7.5Z"/>
          <path id="Path_4" data-name="Path 4" class="cls-1" d="M188.3,102.4A57.173,57.173,0,0,0,178.2,99c-1.7-.4-4.2-1.2-4.2.1-.1,1.3,2.5,2.2,4.1,3.3a42.441,42.441,0,0,0,12.3,3.8c1,.1,2.1.2,2-.7-.1-.7-1.2-1.3-2-1.9A10.5,10.5,0,0,0,188.3,102.4Z"/>
          <path id="Path_5" data-name="Path 5" class="cls-1" d="M129.5,24a6.434,6.434,0,0,1,1.6-1.9c.3-.3.7-.6,1.2-.3a1.382,1.382,0,0,1,.6,1.1c0,1.5-2.7,4.3-4.2,4.2-.8,0-.8-.6-.5-1.1A13.188,13.188,0,0,1,129.5,24Z"/>
          <path id="Path_6" data-name="Path 6" class="cls-1" d="M173.2,62.3a7.486,7.486,0,0,1,2.2-1.2c.4-.1.9-.3,1.2.1a1.213,1.213,0,0,1,.1,1.3c-.5,1.4-4.1,3-5.4,2.4-.8-.3-.5-.8-.1-1.2A13.313,13.313,0,0,1,173.2,62.3Z"/>
          <path id="Path_7" data-name="Path 7" class="cls-1" d="M109.3,2.8a2.573,2.573,0,0,0,.1,1.5h0c-.6,1.7,0,3.5-.5,5.2-.6,2.2.3,4,1,5.9,0,.4,0,.9.6.9.6.1.8-.4.9-.9A37.872,37.872,0,0,0,113,6.6a10.919,10.919,0,0,0-.4-4c-.2-.6-.5-1.4-1.4-1.3A2.293,2.293,0,0,0,109.3,2.8Z"/>
          <path id="Path_8" data-name="Path 8" class="cls-1" d="M167.9,57.8h0c-.4.6-1.1.9-1.4,1.6-.1.4.3.2.5.1a48.5,48.5,0,0,0,7.9-5c1.1-1,1.2-1.6.8-2a2.092,2.092,0,0,0-.6-.4h0c-.6.3-1.3.7-1.9,1a19.456,19.456,0,0,0-4.4,3.2C168.5,56.7,167.9,57.1,167.9,57.8Z"/>
          <path id="Path_9" data-name="Path 9" class="cls-1" d="M150.7,38.9h0c-.7,1.2-.6,1.7.3,1.4.5-.2,1.1-.5,1.2.1.1,1.8,1.7.4,3.2-1.1,2-2.1,4-4.4,5.9-6.7.8-.9,1.6-2,1.4-2.8-.9,0-1.4-.8-2.9.4a29.888,29.888,0,0,0-5.1,5A7.284,7.284,0,0,0,150.7,38.9Z"/>
          <path id="Path_10" data-name="Path 10" class="cls-1" d="M174.4,82c.2.4.6.3.9.3h0a1.425,1.425,0,0,1,1.2.6,5.019,5.019,0,0,1,1.2-.2,69.816,69.816,0,0,0,7.9-.5c.1-.2.3-.3.2-.6h0c-.2-1.5-.5-1.8-2.1-1.9a5.853,5.853,0,0,1-1.3-.2h0a26.417,26.417,0,0,0-2.9.2c-.1,0-.1,0-.2-.1-1.6.3-3.6-.6-4.5,1.6C174.7,81.4,174.3,81.6,174.4,82Z"/>
          <path id="Path_11" data-name="Path 11" class="cls-1" d="M171.7,116.7a4.7,4.7,0,0,0,.9.6,23.279,23.279,0,0,1,2.8,2.6h.3a17.171,17.171,0,0,1,4.3,2.5c2.2.7,1-1.2,1-2.1a30.684,30.684,0,0,0-10.1-6.1C169.8,115,170.5,115.8,171.7,116.7Z"/>
        </g>
      </g>
      <g id="ZElpxO_1_">
        <g id="Group_4" data-name="Group 4">
          <g id="Group_3" data-name="Group 3">
            <path id="Path_12" data-name="Path 12" class="cls-2" d="M157.4,124.2Z"/>
            <path id="Path_13" data-name="Path 13" class="cls-2" d="M159.9,127.4h0c2.6,3.2,5.7,6.1,8.5,9.2,1.1,1.1,2.3,2.2,3.5,3.2.4.3.8.7,1.2.5q.45-.3,0-.9c-.4-.6-.1-.8.3-.9-.8-1-.8-2.2-2-3.2h0c0-.1-.1-.1-.1-.2a20.017,20.017,0,0,0-2.7-3.1h0a.1.1,0,0,0-.1-.1,29.455,29.455,0,0,0-5.8-6.5c-1.6-1.4-2.9-1.4-3.1.2-.7-.5-1.5-.9-2.2-1.4C157.5,125.5,159.1,126.3,159.9,127.4Z"/>
          </g>
          <path id="Path_14" data-name="Path 14" class="cls-2" d="M126,6.2a42.86,42.86,0,0,0-4,8.4c-.5,1.5-1.5,3.5-.3,3.7s2.2-1.9,3.3-3.2a32.051,32.051,0,0,0,4.5-10.3c.2-.9.3-1.8-.4-1.8s-1.3.8-1.9,1.5A6.57,6.57,0,0,0,126,6.2Z"/>
          <path id="Path_15" data-name="Path 15" class="cls-2" d="M188,101.2a57.173,57.173,0,0,0-10.1-3.4c-1.7-.4-4.2-1.2-4.2.1-.1,1.3,2.5,2.2,4.1,3.3a42.441,42.441,0,0,0,12.3,3.8c1,.1,2.1.2,2-.7-.1-.7-1.2-1.3-2-1.9A11.252,11.252,0,0,0,188,101.2Z"/>
          <path id="Path_16" data-name="Path 16" class="cls-2" d="M129.2,22.7a6.434,6.434,0,0,1,1.6-1.9c.3-.3.7-.6,1.2-.3a1.382,1.382,0,0,1,.6,1.1c0,1.5-2.7,4.3-4.2,4.2-.8,0-.8-.6-.5-1.1A21.193,21.193,0,0,1,129.2,22.7Z"/>
          <path id="Path_17" data-name="Path 17" class="cls-2" d="M172.8,61.1a7.486,7.486,0,0,1,2.2-1.2c.4-.1.9-.3,1.2.1a1.213,1.213,0,0,1,.1,1.3c-.5,1.4-4.1,3-5.4,2.4-.8-.3-.5-.8-.1-1.2A17.3,17.3,0,0,1,172.8,61.1Z"/>
          <path id="Path_18" data-name="Path 18" class="cls-2" d="M109,1.6a2.573,2.573,0,0,0,.1,1.5h0c-.6,1.7,0,3.5-.5,5.2-.6,2.2.3,4,1,5.9,0,.4,0,.9.6.9.6.1.8-.4.9-.9a37.872,37.872,0,0,0,1.6-8.8,10.919,10.919,0,0,0-.4-4c-.2-.6-.5-1.4-1.4-1.3A1.927,1.927,0,0,0,109,1.6Z"/>
          <path id="Path_19" data-name="Path 19" class="cls-2" d="M167.6,56.5h0c-.4.6-1.1.9-1.4,1.6-.1.4.3.2.5.1a48.5,48.5,0,0,0,7.9-5c1.1-1,1.2-1.6.8-2a2.092,2.092,0,0,0-.6-.4h0c-.6.3-1.3.7-1.9,1a19.456,19.456,0,0,0-4.4,3.2C168.2,55.4,167.5,55.9,167.6,56.5Z"/>
          <path id="Path_20" data-name="Path 20" class="cls-2" d="M150.4,37.6h0c-.7,1.2-.6,1.7.3,1.4.5-.2,1.1-.5,1.2.1.1,1.8,1.7.4,3.2-1.1,2-2.1,4-4.4,5.9-6.7.8-.9,1.6-2,1.4-2.8-.9,0-1.4-.8-2.9.4a29.888,29.888,0,0,0-5.1,5A7.284,7.284,0,0,0,150.4,37.6Z"/>
          <path id="Path_21" data-name="Path 21" class="cls-2" d="M174.1,80.7c.2.4.6.3.9.3h0a1.425,1.425,0,0,1,1.2.6,5.019,5.019,0,0,1,1.2-.2,69.816,69.816,0,0,0,7.9-.5c.1-.2.3-.3.2-.6h0c-.2-1.5-.5-1.8-2.1-1.9a5.853,5.853,0,0,1-1.3-.2h0a26.417,26.417,0,0,0-2.9.2c-.1,0-.1,0-.2-.1-1.6.3-3.6-.6-4.5,1.6C174.4,80.2,173.9,80.3,174.1,80.7Z"/>
          <path id="Path_22" data-name="Path 22" class="cls-2" d="M171.4,115.5a4.7,4.7,0,0,0,.9.6,23.279,23.279,0,0,1,2.8,2.6h.3a17.171,17.171,0,0,1,4.3,2.5c2.2.7,1-1.2,1-2.1a30.684,30.684,0,0,0-10.1-6.1C169.5,113.8,170.2,114.6,171.4,115.5Z"/>
        </g>
      </g>
    </g>
    <g id="oMBpVU_1_">
      <g id="Group_6" data-name="Group 6">
        <path id="Path_23" data-name="Path 23" class="cls-3" d="M39,37.4c2.8-2.8,9.7,3.1,9.7,3.1l5.7,6,6.9-2.9,10.2-.9,28.7,6.2,9.7,8.4,5-4.2,5.8-.3,3.1.9-2.3,6.1-5.7,3.6,1.4,4.3,2.6,7.7v5.9L111,86.4l10.5,20.2,6.6-7.4,1.4-11.4,2.1-16,4.2-9.4,17.3,4.9,3.5,7.2,1.2,6.7-4.3,15.7-6.9,14.4-8.5,10.6-6.4,9.7L129,137l2.7,10.7-18.1-2.1-2.2-1.4L110,112.4l-2.8-13.5-1.7-2H87.1L62.2,95.4l-15.9-3,5.9-15L51.4,75l-8.2-2.4L41,68.4,41.2,56l4.2-4-4.7-6.2Z"/>
        <path id="Path_24" data-name="Path 24" class="cls-2" d="M43,49c-3.8-2.1-5.8-7.7-4-11.5.9-2.1,2.9-2.2,4.4-1.1a126.458,126.458,0,0,1,9.8,8c1.2,1.1,1.9,1.4,3.4.6,8.1-4.5,16.5-3.9,25.1-1.3a83.837,83.837,0,0,0,8.7,1.8c7.2,1.5,14,3.6,19,9.7,2.3-1.3,4.3-2.7,6.5-3.8,2.6-1.3,7.3.1,8.1,2.2.9,2.2-1.3,7.8-3.4,8.9-1.2.6-2.4,1.4-2.9,1.7,1.4,4.3,3,8.1,3.8,12,1.1,5.3-.4,7.2-5.6,8.6a12.219,12.219,0,0,0-2.8,1.4c2.6,5.5,5.1,10.7,7.4,16,1,2.3,2.1,2.2,3.5.6.2-.2.6-.4.6-.7.7-4.1,3.7-7,4.2-11.6.9-9.5.2-19.5,5-28.1,1.7-3.1,5.5-5.5,8.8-7,1.3-.6,4.5,1.9,6.1,3.6a41.4,41.4,0,0,1,6.5,8.6c2.4,4.6,4.2,9.4,3.5,15-1.1,9.3-5,17.5-9.1,25.5-2.3,4.5-5.7,8.5-8.7,12.6-2.1,2.8-4.5,5.4-6.4,8.3a22.136,22.136,0,0,0-3.4,7.3c-.4,1.8.6,3.9.7,5.9,0,.7-.7,1.5-1.1,2.2-.7-.5-1.8-.8-2-1.5a37.292,37.292,0,0,1-1.2-5.8c-.3-2.1-.5-4.2-.8-6.3-.8-4.7-1.9-9.4-2.4-14.1-.7-5.6-3.8-10-6.4-14.7-.7-1.2-1-2.6-1.6-3.9-1.2-2.3-2.5-4.6-3.6-6.9-1.9-4-1.9-4-6.2-2.5a5.663,5.663,0,0,1-1.8.3c-4.4-.1-8.8-.4-13.1-.3-6.1.1-11.1-3.1-16.5-5.2-4-1.6-8.1-3.1-12.2-4.5a9.6,9.6,0,0,0-3.3-.6c-1.8-.1-4.3-.7-5.3.2-2.8,2.5-5,5.6-4.8,9.7v3.5c7.5,2.3,15.4,3.9,23.7,3.3,5.7-.4,11.4.2,17.1.2,3,0,6.1-.4,9.1-.3,2.8.1,5.8,0,8.4,1,1.2.4,2,3,2.2,4.7.8,7.3,1.3,14.5,1.8,21.8.3,5.1.3,10.2.5,15.2a2.392,2.392,0,0,0,1,1.8c.6-2.2,1.3-4.5,1.9-6.7.2,0,.3.1.5.1.1,3,.1,6.1.5,9.1.1.9,1.2,1.7,1.8,2.5.7-.7,1.8-1.3,1.9-2.1.8-4.2,1.4-8.5,2.1-12.7a21.718,21.718,0,0,1,.7-2.4,4.869,4.869,0,0,1,1.2.1,37.264,37.264,0,0,1,.1,4.7c-.4,3.7-1.1,7.4-1.4,11.2,0,.7,1.3,2,2.1,2.1,4.4.7,8.9,1.1,13.4,1.6,1.7.2,2.2,1,2,2.7a19.833,19.833,0,0,0,.5,3.9c-5.4,5.4-11.3,11.2-16.9,17-3.6,3.7-6.9,7.7-10.3,11.6-.4.4-.4,1.2-.8,1.6-.8.8-1.8,1.9-2.8,2a59.326,59.326,0,0,1-8.4.6,44.757,44.757,0,0,1-6.3-.6c-4.8-.7-9.6-1.5-14.5-2.3-4.1-.6-8.3-1.7-12.5-1.8-5.6-.1-11.3.5-16.9.7-5,.3-9.9.6-14.9.7-5.5.1-11,.2-16.5,0-5.8-.2-11.6-.8-17.4-1.5a3.515,3.515,0,0,1-2-2.7c.3-2.5,1.4-4.9,1.7-7.4a71.191,71.191,0,0,0,1-13,269.455,269.455,0,0,1,.4-34.8c.1-1.6,1.7-3,1.8-4.6a40.26,40.26,0,0,0-.1-8.5c-.3-2.9-1.1-5.7-1.6-8.6-.3-2,2.3-5.7,4.7-6.1,4.9-.9,9.8-1.3,14.7-2.1,3.5-.5,6.9-1.4,10.4-1.8a77.325,77.325,0,0,1,9.6-.6c1.8,0,2.8.2,3.4-2.2.8-3.4,2.6-6.6,4.1-9.8,1.4-2.8,1.2-3.4-2-4.2a16.553,16.553,0,0,1-2.1-.6c-5.5-2.3-6.8-5-6-12.3A21.912,21.912,0,0,1,41.5,56c.6-1.5,2.2-2.6,3.2-3.7A17.358,17.358,0,0,1,43,49a17.977,17.977,0,0,0,2,1.1,14.07,14.07,0,0,0,2.7.6c-1.6-1.8-2.8-2.6-3.4-3.8-.6-1.3-.5-2.8-.7-4.3,1.2.1,2.3.1,3.5.2-.9-2.9-2.7-4.8-7-4.7.4,2.4.6,4.4,1.1,6.4A42.2,42.2,0,0,0,43,49Zm65.6,104.3H110c-.1-5.1-.1-10.1-.2-15.2,0-1.7.1-3.4,0-5.2-.1-3.7-.2-7.3-.5-11-.2-2-.9-3.9-1-5.9-.4-4.6-.3-9.3-.8-14-.5-4-1.8-4.8-5.7-4.6-3.3.1-6.5,0-9.8-.1-5.4-.1-10.8,0-16.3-.3-7.7-.5-15.4-.4-23.1-2.5-5-1.4-10.5-1.2-15.8-.9-5.3.4-10.5,1.8-15.8,2.6-2.9.4-5.9.4-8.8.8-3.8.5-6.7,4.1-6.4,7.3.6,8.5,1.1,16.9,1.6,25.4,0,.9-.8,1.8-1.1,2.8a58.818,58.818,0,0,0-1.6,7c-.2,1.2.6,2.5.6,3.7-.1,3.9-.3,7.7-.4,11.6-.3,6.5-.4,13.1-1.1,19.5-.4,4.1-.9,4.3,3.4,4.6,9.9.8,19.7,1.4,29.6,1.8a94.534,94.534,0,0,0,13-.8c1.2-.1,2.3-1.1,3.4-1,11.9.9,23.8,1.6,35.6,3.2,5.8.8,11.3,2.4,17.2.7,2.8-.8,3.7-2.1,2.5-4.9a11.767,11.767,0,0,1-1-4C107.8,167.1,108.2,160.2,108.6,153.3ZM54.2,49.3c-.1.1-.1.2-.2.3-2.4,1.3-4.9,2.6-7.2,4.1-1.4.9-3.3,2-3.6,3.4a67.15,67.15,0,0,0-1,11.8,3.413,3.413,0,0,0,1.9,2.5,55.542,55.542,0,0,0,7.2,2.5c7.3,2,14.6,3.9,21.9,6,3,.9,6.3,1.8,8.7,3.7,3.4,2.7,7.1,2.7,11,2.7,3.1,0,6.3,0,9.4-.2a59.88,59.88,0,0,0,7.4-1c1.9-.4,3.6-1.6,5.4-2,2.6-.6,4.1-2.2,4-4.6-.1-2.5-.2-5.2-1.4-7.3-3-5.2-6.1-10.6-10.1-14.9-3.3-3.5-7.1-7.2-12.6-7.9-5.6-.8-11.1-1.9-16.6-3.1-6.5-1.4-13-3.1-19.2,1A41.351,41.351,0,0,0,54.2,49.3Zm82.7,101.6a25.146,25.146,0,0,0-4.6,1,6.25,6.25,0,0,0-2.7,1.7c-3.5,4.2-7,8.5-10.3,12.8-2.5,3.3-5,6.7-7.2,10.2-.5.8.1,2.2.2,4,4.1-4.7,7.6-8.4,10.7-12.5,4-5.2,10.2-8.4,13-14.6C136.3,152.7,136.5,151.9,136.9,150.9Zm-6.3-54.3c-.4.3-.7.7-1.1,1,3.4,6.8,6.9,13.5,10.4,20.4.8-.5,1.2-.6,1.4-.9,1.6-2.8,3.2-5.6,4.7-8.4.8-1.7,1-3-1.5-4-3.2-1.2-6-3.2-9-4.9C133.8,98.8,132.3,97.7,130.6,96.6Zm23.8-5c-7.4-3.1-14.5-6.1-21.9-9.2-.2,1.1-.4,2.4-.7,3.6-.5,2-.1,3.1,1.9,4.3,6,3.6,12.1,5.6,19.2,4.5C153.5,93.6,154.1,92.3,154.4,91.6Zm-21.2-21c8.1.9,14.5,6.8,23.3,6.5-1.5-3.1-2.5-5.9-4.1-8.2-.4-.6-2.7.1-4.2.2a7.719,7.719,0,0,1-1.5-.2c-4-.9-8.7.1-11.8-4.2A57.2,57.2,0,0,1,133.2,70.6Zm-12.4,77.3c-.2.3-.5.6-.7.9.4.2.7.4,1.1.6,3.5,2,3.3,2.2.3,4.7-1.7,1.4-4.5,2.9-3.2,6.2.1.3-.7,1.4-1.3,1.6-2.9.7-6.2,3.6-6.5,6.5a31.724,31.724,0,0,0,.2,5.3c1.1-.3,1.4-.5,1.6-.8,3.8-5.6,6.8-11.7,12.5-15.9,2.4-1.7,3.8-4.8,4.1-8.3C126,148.5,123.4,148.2,120.8,147.9Zm14.3-23.2c-3-3.8-5.7-7.3-8.4-10.8-.2.2-.4.3-.6.5,1.3,5.3,2.5,10.6,3.9,16.4C132,128.3,133.7,126.3,135.1,124.7ZM117.4,61.5c2.1-1.9,4.6-3,4.1-5.9a3.87,3.87,0,0,0-2.8-2.6c-1.2-.2-2.5.9-3.8,1.5C120,55.7,116.7,58.9,117.4,61.5Zm-.2,95.6c-.1-.4-.2-.8-.3-1.1-.9-.8-1.6-1.9-2.7-2.3-.8-.3-2.6-.1-2.7.4-.4,1-.1,2.3,0,3.5C113.4,157.4,115.3,157.2,117.2,157.1Zm-3.3-5.1a10.592,10.592,0,0,0,1.2-1c-.5-1.2-1.1-2.4-1.6-3.6-.5.8-1.5,1.7-1.4,2.5C112,150.7,113.2,151.4,113.9,152Z"/>
        <path id="Path_25" data-name="Path 25" class="cls-4" d="M108.6,153.3c-.4,6.9-.8,13.8-1.1,20.7a9.459,9.459,0,0,0,1,4c1.2,2.8.2,4.1-2.5,4.9-5.9,1.7-11.4.1-17.2-.7C77,180.6,65.1,180,53.2,179c-1.1-.1-2.3.9-3.4,1a94.536,94.536,0,0,1-13,.8c-9.9-.4-19.8-1-29.6-1.8-4.3-.3-3.8-.5-3.4-4.6.7-6.5.8-13,1.1-19.5.2-3.9.4-7.7.4-11.6,0-1.2-.7-2.5-.6-3.7a54.665,54.665,0,0,1,1.6-7c.3-1,1.1-1.9,1.1-2.8-.4-8.5-1-16.9-1.6-25.4-.2-3.2,2.6-6.8,6.4-7.3,2.9-.4,5.9-.4,8.8-.8,5.3-.8,10.5-2.2,15.7-2.5,5.3-.3,10.8-.4,15.8.9,7.7,2.1,15.4,2,23.1,2.5,5.4.3,10.8.2,16.3.3,3.3.1,6.5.2,9.8.1,3.9-.1,5.3.7,5.7,4.6.5,4.6.5,9.3.8,14,.1,2,.9,3.9,1,5.9.3,3.6.4,7.3.5,11,.1,1.7,0,3.4,0,5.2.1,5.1.1,10.1.2,15.2A2.745,2.745,0,0,0,108.6,153.3Zm-55.7-8.7c.8-2.2,1.5-4.4,2.4-6.5.9-2.4,1.8-4.8,2.8-7.1.7-1.6,1.6-3.1,2.2-4.7.2-.5-.5-1.3-.8-2-.6.4-1.6.6-1.8,1.1-1.4,3.6-2.7,7.2-4.1,10.8a11.97,11.97,0,0,1-1.8,3.1C49.7,141.5,49.9,143,52.9,144.6Zm-3.6-3.9c-.1-5.4-4.4-2.3-6.1-3.9.8-1.7,1.6-3.3,2.4-4.9-.4-.3-.8-.5-1.2-.8a46.181,46.181,0,0,0-4.9,5c-.4.5.4,2.7,1,2.9C43.3,139.7,46.1,140.1,49.3,140.7Zm11.6-9.4-.3.6c.4.4.8,1,1.3,1.1,3.5,1,2.6,3.2,1.4,5.4-.2.4-.6.7-.6,1a24.77,24.77,0,0,0,.3,2.7c.7-.6,1.8-1,2.2-1.7a29.6,29.6,0,0,0,2.4-5.5,2.943,2.943,0,0,0-.8-2.5C64.9,131.9,62.9,131.7,60.9,131.3Z"/>
        <path id="Path_26" data-name="Path 26" class="cls-4" d="M136.9,150.9a24.968,24.968,0,0,1-.8,2.5c-2.8,6.2-9,9.5-13,14.6-3.1,4-6.7,7.8-10.7,12.5-.1-1.8-.7-3.2-.2-4,2.2-3.5,4.7-6.9,7.2-10.2,3.3-4.3,6.8-8.6,10.3-12.8a6.9,6.9,0,0,1,2.7-1.7A31.573,31.573,0,0,1,136.9,150.9Z"/>
        <path id="Path_27" data-name="Path 27" class="cls-4" d="M120.8,147.9c2.6.3,5.2.6,8.1.9a11.493,11.493,0,0,1-4.1,8.3c-5.8,4.2-8.7,10.3-12.5,15.9-.2.3-.5.6-1.6.8a31.724,31.724,0,0,1-.2-5.3c.3-2.8,3.6-5.8,6.5-6.5.6-.1,1.4-1.2,1.3-1.6-1.3-3.3,1.5-4.8,3.2-6.2,3-2.5,3.2-2.6-.3-4.7-.4-.2-.7-.4-1.1-.6A8.65,8.65,0,0,1,120.8,147.9Z"/>
        <path id="Path_28" data-name="Path 28" class="cls-4" d="M117.2,157.1c-1.9.2-3.8.3-5.7.5a13.642,13.642,0,0,1,0-3.5c.2-.4,1.9-.7,2.7-.4,1,.4,1.8,1.5,2.7,2.3C117,156.3,117.1,156.7,117.2,157.1Z"/>
        <path id="Path_29" data-name="Path 29" class="cls-4" d="M113.9,152c-.7-.7-1.9-1.3-1.9-2.1-.1-.8.9-1.7,1.4-2.5.5,1.2,1.1,2.4,1.6,3.6A5.242,5.242,0,0,1,113.9,152Z"/>
        <path id="Path_30" data-name="Path 30" class="cls-2" d="M52.9,144.6c-3-1.7-3.2-3.1-1.2-5.3a9.68,9.68,0,0,0,1.8-3.1c1.4-3.6,2.7-7.3,4.1-10.8.2-.5,1.2-.7,1.8-1.1.3.7,1,1.5.8,2-.6,1.6-1.5,3.1-2.2,4.7-1,2.3-1.9,4.7-2.8,7.1C54.4,140.2,53.7,142.4,52.9,144.6Z"/>
        <path id="Path_31" data-name="Path 31" class="cls-2" d="M49.3,140.7c-3.2-.6-6-.9-8.7-1.7-.6-.2-1.4-2.4-1-2.9a46.181,46.181,0,0,1,4.9-5c.4.3.8.5,1.2.8-.8,1.6-1.6,3.2-2.4,4.9C44.9,138.3,49.3,135.3,49.3,140.7Z"/>
        <path id="Path_32" data-name="Path 32" class="cls-2" d="M60.9,131.3a35.031,35.031,0,0,1,5.8,1.2,2.674,2.674,0,0,1,.8,2.5,26.96,26.96,0,0,1-2.4,5.5c-.4.7-1.4,1.1-2.2,1.7a24.77,24.77,0,0,1-.3-2.7c0-.3.4-.7.6-1,1.2-2.2,2.1-4.4-1.4-5.4-.5-.1-.9-.8-1.3-1.1A5.737,5.737,0,0,0,60.9,131.3Z"/>
        <path id="Path_33" data-name="Path 33" class="cls-2" d="M82.6,64.5c1.6-2.3,2.9-4.9,5-6.6,1.3-1,3.9-.7,5.8-.6,4.8.4,10,5.6,10.7,10.3.4,2.8-1.8,7.1-4.7,8.7-2.7,1.4-5.9,2.5-8.6.6C86.6,74.1,81.7,71.5,82.6,64.5Zm8,5.7a11.182,11.182,0,0,0,3.3,1.6c1.9.3,2.6-1.1,2.9-2.8.1-1,.2-2,.4-3,.4-2.2-.2-3.7-2.6-3.9-2.1-.2-4,.3-4.3,2a24,24,0,0,1,2.9,3.8C93.3,68.1,91.9,69.1,90.6,70.2Z"/>
        <path id="Path_34" data-name="Path 34" class="cls-2" d="M65.7,53c5.1.6,7.6,4.5,9.9,8.2,1.8,2.8-1,8.6-4.2,9.5-4,1.2-8,2-11.7-.5a11.338,11.338,0,0,1-4.1-4.6c-1.8-4.4,1.2-11.2,5.6-12.7C62.5,52.4,64.2,52.9,65.7,53Zm1.4,8.9c-.5-2.2-2.1-2.7-4-1.9-.9.4-2.1,2.1-1.9,2.4,1,1.4.1,4.4,2.8,4.3,1.1,0,3.3.5,3.5-1.7a18.6,18.6,0,0,1-3.2-.8c-.3-.1-.3-1.5-.1-1.6A12.32,12.32,0,0,1,67.1,61.9Z"/>
      </g>
    </g>
    <path id="Path_35" data-name="Path 35" class="cls-5" d="M116.5,51.2a78.1,78.1,0,0,1-2.9,8.1,2.229,2.229,0,0,1,2.4,1,2.124,2.124,0,0,1-.4,2.6c2.7.8,5.3,1.7,8,2.5a10.064,10.064,0,0,1,4,2,3.242,3.242,0,0,1,.6,4.1,4.176,4.176,0,0,1-2.1,1.3c-4.8,1.9-9.7,3.8-14.5,5.6a54.031,54.031,0,0,1,.7-13.3c-1.1.3-2.2.5-3.3.8-1.4-.8.1-2.8-.6-3.8-1.1-1.6-3.9-1.9-5.6-2.6-3.4-1.4-4.9-2.1-2.4-5.4S119.3,42.1,116.5,51.2Z"/>
  </g>
</svg>
